<svg width="15" height="16" viewBox="0 0 15 16" fill="none" xmlns="http://www.w3.org/2000/svg">
<path d="M0.292893 13.3757C-0.0976312 13.7662 -0.0976312 14.3993 0.292893 14.7899C0.683418 15.1804 1.31658 15.1804 1.70711 14.7899L0.292893 13.3757ZM14.1655 1.91724C14.1655 1.36495 13.7178 0.917237 13.1655 0.917237L4.16553 0.917238C3.61324 0.917237 3.16553 1.36495 3.16553 1.91724C3.16553 2.46952 3.61324 2.91724 4.16553 2.91724L12.1655 2.91724L12.1655 10.9172C12.1655 11.4695 12.6132 11.9172 13.1655 11.9172C13.7178 11.9172 14.1655 11.4695 14.1655 10.9172L14.1655 1.91724ZM1.70711 14.7899L13.8726 2.62434L12.4584 1.21013L0.292893 13.3757L1.70711 14.7899Z" fill="#2E5CFE"/>
</svg>
