<?xml version="1.0" encoding="utf-8"?>
<!-- Generator: Adobe Illustrator 25.0.0, SVG Export Plug-In . SVG Version: 6.00 Build 0)  -->
<svg version="1.1" id="Слой_1" xmlns="http://www.w3.org/2000/svg" xmlns:xlink="http://www.w3.org/1999/xlink" x="0px" y="0px"
	 viewBox="0 0 250 60" style="enable-background:new 0 0 250 60;" xml:space="preserve">
<style type="text/css">
	.st0{display:none;fill:none;stroke:#000000;stroke-miterlimit:10;}
	.st1{fill:#2E5CFE;}
</style>
<rect class="st0" width="60" height="60"/>
<path class="st1" d="M99.6,41h-7.7V19.2h7.8c2.2,0,4.1,0.4,5.7,1.3c1.6,0.9,2.8,2.1,3.7,3.7c0.9,1.6,1.3,3.6,1.3,5.8
	c0,2.3-0.4,4.2-1.3,5.9c-0.9,1.6-2.1,2.9-3.7,3.8C103.8,40.6,101.8,41,99.6,41z M96.5,37h2.9c1.4,0,2.5-0.2,3.4-0.7
	c0.9-0.5,1.6-1.2,2.1-2.3c0.5-1,0.7-2.4,0.7-4c0-1.6-0.2-2.9-0.7-4c-0.5-1-1.2-1.8-2.1-2.3c-0.9-0.5-2.1-0.7-3.4-0.7h-2.9V37z
	 M113.6,41V24.6h4.4v2.9h0.2c0.3-1,0.8-1.8,1.5-2.3c0.7-0.5,1.5-0.8,2.4-0.8c0.2,0,0.5,0,0.7,0c0.3,0,0.5,0.1,0.7,0.1v4
	c-0.2-0.1-0.5-0.1-0.9-0.2s-0.7-0.1-1-0.1c-0.7,0-1.3,0.1-1.8,0.4c-0.5,0.3-0.9,0.7-1.2,1.2c-0.3,0.5-0.4,1.1-0.4,1.8V41H113.6z
	 M132.5,41.3c-1.7,0-3.1-0.4-4.3-1.1c-1.2-0.7-2.1-1.7-2.8-3c-0.7-1.3-1-2.7-1-4.4c0-1.7,0.3-3.2,1-4.4c0.7-1.3,1.6-2.3,2.8-3
	c1.2-0.7,2.6-1.1,4.3-1.1c1.7,0,3.1,0.4,4.3,1.1c1.2,0.7,2.1,1.7,2.8,3c0.7,1.3,1,2.7,1,4.4c0,1.7-0.3,3.1-1,4.4
	c-0.7,1.3-1.6,2.3-2.8,3C135.6,41,134.2,41.3,132.5,41.3z M132.6,37.8c0.8,0,1.4-0.2,1.9-0.6c0.5-0.4,0.9-1,1.1-1.8
	c0.3-0.7,0.4-1.6,0.4-2.5c0-1-0.1-1.8-0.4-2.5c-0.3-0.7-0.6-1.3-1.1-1.8c-0.5-0.4-1.1-0.6-1.9-0.6c-0.8,0-1.4,0.2-1.9,0.6
	c-0.5,0.4-0.9,1-1.2,1.8c-0.3,0.7-0.4,1.6-0.4,2.5c0,1,0.1,1.8,0.4,2.5c0.3,0.7,0.6,1.3,1.2,1.8C131.2,37.6,131.8,37.8,132.6,37.8z
	 M148.1,31.5V41h-4.5V24.6h4.3v2.9h0.2c0.4-1,1-1.7,1.8-2.3c0.9-0.6,1.9-0.8,3.1-0.8c1.1,0,2.1,0.2,3,0.7c0.8,0.5,1.5,1.2,2,2.1
	c0.5,0.9,0.7,2,0.7,3.3V41h-4.5v-9.6c0-1-0.2-1.8-0.8-2.3c-0.5-0.6-1.2-0.9-2.1-0.9c-0.6,0-1.2,0.1-1.6,0.4
	c-0.5,0.3-0.8,0.6-1.1,1.2C148.2,30.2,148.1,30.8,148.1,31.5z M162.2,41V24.6h4.5V41H162.2z M164.5,22.5c-0.7,0-1.3-0.2-1.7-0.7
	c-0.5-0.5-0.7-1-0.7-1.6c0-0.6,0.2-1.2,0.7-1.6c0.5-0.5,1.1-0.7,1.7-0.7c0.7,0,1.2,0.2,1.7,0.7c0.5,0.4,0.7,1,0.7,1.6
	c0,0.6-0.2,1.2-0.7,1.6C165.7,22.3,165.2,22.5,164.5,22.5z M185.6,24.6L179.9,41h-5.1l-5.7-16.4h4.8l3.4,11.7h0.2l3.4-11.7H185.6z
	 M194.9,41.3c-1.7,0-3.1-0.3-4.3-1c-1.2-0.7-2.1-1.7-2.8-2.9c-0.7-1.3-1-2.8-1-4.5c0-1.7,0.3-3.2,1-4.4c0.7-1.3,1.6-2.3,2.8-3
	c1.2-0.7,2.6-1.1,4.2-1.1c1.1,0,2.1,0.2,3,0.5c0.9,0.3,1.8,0.9,2.5,1.5c0.7,0.7,1.2,1.6,1.6,2.6c0.4,1,0.6,2.3,0.6,3.6V34h-13.8
	v-2.8h9.5c0-0.7-0.1-1.2-0.4-1.7c-0.3-0.5-0.7-0.9-1.2-1.2c-0.5-0.3-1.1-0.4-1.7-0.4c-0.7,0-1.3,0.2-1.8,0.5
	c-0.5,0.3-0.9,0.7-1.2,1.3c-0.3,0.5-0.5,1.1-0.5,1.8V34c0,0.8,0.1,1.5,0.4,2.1c0.3,0.6,0.7,1,1.3,1.4s1.2,0.5,2,0.5
	c0.5,0,1-0.1,1.4-0.2c0.4-0.1,0.8-0.4,1.1-0.6c0.3-0.3,0.5-0.6,0.7-1l4.2,0.3c-0.2,1-0.6,1.9-1.3,2.6c-0.7,0.7-1.5,1.3-2.5,1.7
	C197.4,41.1,196.2,41.3,194.9,41.3z M205.4,41V24.6h4.4v2.9h0.2c0.3-1,0.8-1.8,1.5-2.3c0.7-0.5,1.5-0.8,2.4-0.8c0.2,0,0.5,0,0.7,0
	c0.3,0,0.5,0.1,0.7,0.1v4c-0.2-0.1-0.5-0.1-0.9-0.2c-0.4,0-0.7-0.1-1-0.1c-0.7,0-1.3,0.1-1.8,0.4c-0.5,0.3-0.9,0.7-1.2,1.2
	c-0.3,0.5-0.4,1.1-0.4,1.8V41H205.4z M231.3,29.3l-4.2,0.3c-0.1-0.4-0.2-0.7-0.5-1c-0.2-0.3-0.5-0.5-0.9-0.7
	c-0.4-0.2-0.8-0.3-1.4-0.3c-0.7,0-1.3,0.1-1.8,0.4c-0.5,0.3-0.7,0.7-0.7,1.2c0,0.4,0.2,0.7,0.5,1c0.3,0.3,0.8,0.5,1.6,0.6l3,0.6
	c1.6,0.3,2.8,0.9,3.6,1.6c0.8,0.7,1.2,1.7,1.2,2.9c0,1.1-0.3,2-0.9,2.8c-0.6,0.8-1.5,1.4-2.6,1.9c-1.1,0.4-2.3,0.7-3.8,0.7
	c-2.2,0-3.9-0.5-5.2-1.4c-1.3-0.9-2-2.1-2.2-3.7l4.5-0.2c0.1,0.7,0.5,1.2,1,1.5c0.5,0.3,1.2,0.5,2,0.5c0.8,0,1.4-0.2,1.9-0.5
	c0.5-0.3,0.7-0.7,0.7-1.2c0-0.4-0.2-0.7-0.5-1c-0.3-0.3-0.9-0.5-1.6-0.6l-2.8-0.6c-1.6-0.3-2.8-0.9-3.6-1.7c-0.8-0.8-1.2-1.8-1.2-3
	c0-1.1,0.3-2,0.9-2.7c0.6-0.8,1.4-1.3,2.4-1.8c1-0.4,2.3-0.6,3.7-0.6c2.1,0,3.7,0.4,4.9,1.3C230.4,26.6,231.1,27.8,231.3,29.3z
	 M241.9,41.3c-1.7,0-3.1-0.3-4.3-1c-1.2-0.7-2.1-1.7-2.8-2.9c-0.7-1.3-1-2.8-1-4.5c0-1.7,0.3-3.2,1-4.4c0.7-1.3,1.6-2.3,2.8-3
	c1.2-0.7,2.6-1.1,4.2-1.1c1.1,0,2.1,0.2,3,0.5c0.9,0.3,1.8,0.9,2.4,1.5c0.7,0.7,1.2,1.6,1.6,2.6c0.4,1,0.6,2.3,0.6,3.6V34h-13.8
	v-2.8h9.5c0-0.7-0.1-1.2-0.4-1.7c-0.3-0.5-0.7-0.9-1.2-1.2c-0.5-0.3-1.1-0.4-1.7-0.4c-0.7,0-1.3,0.2-1.8,0.5
	c-0.5,0.3-0.9,0.7-1.2,1.3c-0.3,0.5-0.5,1.1-0.5,1.8V34c0,0.8,0.1,1.5,0.4,2.1c0.3,0.6,0.7,1,1.3,1.4s1.2,0.5,2,0.5
	c0.5,0,1-0.1,1.4-0.2c0.4-0.1,0.8-0.4,1.1-0.6c0.3-0.3,0.5-0.6,0.7-1l4.2,0.3c-0.2,1-0.6,1.9-1.3,2.6c-0.7,0.7-1.5,1.3-2.5,1.7
	C244.5,41.1,243.3,41.3,241.9,41.3z"/>
<g>
	<g id="Слой_1_1_">
		<path class="st1" d="M11.3,22.3c-0.4-0.9-1-1.7-1.6-2.4C9.4,19.4,9,19,8.6,18.7c-0.6-0.6-0.8-0.8-1.1-1.1c-0.4-0.4-1.5-1.5-2-3.1
			c-0.2-0.7-0.3-1.3-0.3-2c0-4,3.2-7.2,7.2-7.2c0.7,0,1.4,0.1,2.1,0.3c1,0.3,2,0.9,2.8,1.6c0.1,0.1,0.2,0.2,0.3,0.3
			c1,1.1,2.2,2.1,3.4,3c1.2,0.9,2.5,1.5,3.8,2.1c0-6.9-5.6-12.4-12.4-12.4C5.6,0.1,0,5.6,0,12.5c0,6.8,5.4,12.3,12.2,12.4
			C12,24,11.7,23.1,11.3,22.3z"/>
		<path class="st1" d="M48.2,22.3c0.4-0.9,1-1.7,1.6-2.4c0.3-0.4,0.7-0.8,1.1-1.2c0.6-0.6,0.8-0.8,1.1-1.1c0.4-0.4,1.5-1.5,2-3.1
			c0.2-0.7,0.3-1.3,0.3-2c0-4-3.2-7.2-7.2-7.2c-0.7,0-1.4,0.1-2.1,0.3c-1,0.3-2,0.9-2.8,1.6c-0.1,0.1-0.2,0.2-0.3,0.3
			c-0.9,0.9-2.2,2.1-3.4,3c-1.2,0.9-2.5,1.5-3.8,2.1c0-6.9,5.6-12.4,12.4-12.4c6.9,0,12.4,5.6,12.4,12.4c0,6.8-5.4,12.3-12.2,12.4
			C47.5,24,47.8,23.1,48.2,22.3z"/>
		<path class="st1" d="M11.3,37.8c-0.4,0.9-1,1.7-1.6,2.4C9.4,40.6,9,41,8.6,41.4C8,42,7.8,42.2,7.5,42.5c-0.4,0.4-1.5,1.5-2,3.1
			c-0.2,0.7-0.3,1.3-0.3,2c0,4,3.2,7.2,7.2,7.2c0.7,0,1.4-0.1,2.1-0.3c1-0.3,2-0.9,2.8-1.6c0.1-0.1,0.2-0.2,0.3-0.3
			c1-1.1,2.2-2.1,3.4-3c1.2-0.9,2.5-1.5,3.8-2.1c0,6.9-5.6,12.4-12.4,12.4C5.6,60,0,54.4,0,47.6c0-6.8,5.4-12.3,12.2-12.4
			C12,36,11.7,36.9,11.3,37.8z"/>
		<path class="st1" d="M48.3,37.8c0.4,0.9,1,1.7,1.6,2.4c0.3,0.4,0.7,0.8,1.1,1.2c0.6,0.6,0.8,0.8,1.1,1.1c0.4,0.4,1.5,1.5,2,3.1
			c0.2,0.7,0.3,1.3,0.3,2c0,4-3.2,7.2-7.2,7.2c-0.7,0-1.4-0.1-2.1-0.3c-1-0.3-2-0.9-2.8-1.6c-0.1-0.1-0.2-0.2-0.3-0.3
			c-1-1.1-2.2-2.1-3.4-3c-1.2-0.9-2.5-1.5-3.8-2.1c0,6.9,5.6,12.4,12.4,12.4c6.9,0,12.4-5.6,12.4-12.4c0-6.8-5.4-12.3-12.2-12.4
			C47.5,36,47.8,36.9,48.3,37.8z"/>
	</g>
	<g id="Слой_2_1_">
		<path class="st1" d="M9,12.8l3.4-3.2c1.1,1.6,4.5,5.7,10.6,7.7c6.6,2.2,12.1,0.5,13.1,0.2c6.3-2,9.7-6.5,10.7-7.9l3.6,3.4
			c-1.5,1-5.8,4.1-8,10.2c-2.2,6-0.9,11.2-0.3,13c2,6.5,6.6,10,8,11l-3.2,3.5c-1.3-1.7-4.2-5-9-7c-1.5-0.6-8.6-3.4-16.5-0.1
			c-4.8,2-7.7,5.3-8.9,7L9,47.2c1.6-1.1,6.3-4.7,8.2-11.3c1.3-4.6,0.5-8.3,0.2-9.9C15.8,18.7,10.8,14.3,9,12.8z"/>
	</g>
</g>
<image style="display:none;overflow:visible;" width="600" height="245" xlink:href="E6F7368C.jpg"  transform="matrix(0.4789 0 0 0.4789 -23.24 -27.7777)">
</image>
</svg>
